<svg width="148" height="47" viewBox="0 0 148 47" fill="none" xmlns="http://www.w3.org/2000/svg">
<path d="M3.90528 35.1433V12.1033H8.80128L22.2733 28.1673V12.1033H26.9453V35.1433H22.0493L8.51328 19.0153V35.1433H3.90528ZM30.5943 35.1433V12.1033H51.8423V16.7433H35.2663V21.2873H48.6103V25.9593H35.2663V35.1433H30.5943ZM62.0318 35.1433V16.7433H52.8158V12.1033H75.8558V16.7433H66.6718V35.1433H62.0318ZM78.281 35.1433V12.1033H82.889V21.2873H97.193V12.1033H101.801V35.1433H97.193V25.9593H82.889V35.1433H78.281ZM109.884 35.1433C109.073 35.1433 108.316 34.9406 107.612 34.5353C106.929 34.1086 106.385 33.554 105.98 32.8713C105.574 32.1886 105.372 31.442 105.372 30.6313V16.5833H109.916V30.4073C109.916 30.45 109.937 30.4926 109.98 30.5353C110.022 30.578 110.065 30.5993 110.108 30.5993H119.452C119.494 30.5993 119.537 30.578 119.58 30.5353C119.622 30.4926 119.644 30.45 119.644 30.4073V16.5833H124.188V30.6313C124.188 31.442 123.985 32.1886 123.58 32.8713C123.174 33.554 122.63 34.1086 121.948 34.5353C121.265 34.9406 120.508 35.1433 119.676 35.1433H109.884ZM126.873 35.1433V10.5033H131.417V16.5833H141.177C142.009 16.5833 142.766 16.7966 143.449 17.2233C144.131 17.6286 144.675 18.1726 145.081 18.8553C145.486 19.538 145.689 20.2846 145.689 21.0953V30.6313C145.689 31.442 145.486 32.1886 145.081 32.8713C144.675 33.554 144.131 34.1086 143.449 34.5353C142.766 34.9406 142.009 35.1433 141.177 35.1433H126.873ZM131.609 30.5993H140.953C141.017 30.5993 141.059 30.578 141.081 30.5353C141.123 30.4926 141.145 30.45 141.145 30.4073V21.3193C141.145 21.2766 141.123 21.234 141.081 21.1913C141.059 21.1486 141.017 21.1273 140.953 21.1273H131.609C131.566 21.1273 131.523 21.1486 131.481 21.1913C131.438 21.234 131.417 21.2766 131.417 21.3193V30.4073C131.417 30.45 131.438 30.4926 131.481 30.5353C131.523 30.578 131.566 30.5993 131.609 30.5993Z" fill="#0F051D"/>
</svg>
