<svg width="145" height="40" viewBox="0 0 145 40" fill="none" xmlns="http://www.w3.org/2000/svg">
<path d="M2.1045 32V8.96H7.0005L20.4725 25.024V8.96H25.1445V32H20.2485L6.7125 15.872V32H2.1045ZM28.7935 32V8.96H50.0415V13.6H33.4655V18.144H46.8095V22.816H33.4655V32H28.7935ZM60.231 32V13.6H51.015V8.96H74.055V13.6H64.871V32H60.231ZM76.4803 32V8.96H81.0883V18.144H95.3923V8.96H100V32H95.3923V22.816H81.0883V32H76.4803ZM108.083 32C107.272 32 106.515 31.7973 105.811 31.392C105.128 30.9653 104.584 30.4107 104.179 29.728C103.774 29.0453 103.571 28.2987 103.571 27.488V13.44H108.115V27.264C108.115 27.3067 108.136 27.3493 108.179 27.392C108.222 27.4347 108.264 27.456 108.307 27.456H117.651C117.694 27.456 117.736 27.4347 117.779 27.392C117.822 27.3493 117.843 27.3067 117.843 27.264V13.44H122.387V27.488C122.387 28.2987 122.184 29.0453 121.779 29.728C121.374 30.4107 120.83 30.9653 120.147 31.392C119.464 31.7973 118.707 32 117.875 32H108.083ZM125.072 32V7.36H129.616V13.44H139.376C140.208 13.44 140.965 13.6533 141.648 14.08C142.33 14.4853 142.874 15.0293 143.28 15.712C143.685 16.3947 143.888 17.1413 143.888 17.952V27.488C143.888 28.2987 143.685 29.0453 143.28 29.728C142.874 30.4107 142.33 30.9653 141.648 31.392C140.965 31.7973 140.208 32 139.376 32H125.072ZM129.808 27.456H139.152C139.216 27.456 139.258 27.4347 139.28 27.392C139.322 27.3493 139.344 27.3067 139.344 27.264V18.176C139.344 18.1333 139.322 18.0907 139.28 18.048C139.258 18.0053 139.216 17.984 139.152 17.984H129.808C129.765 17.984 129.722 18.0053 129.68 18.048C129.637 18.0907 129.616 18.1333 129.616 18.176V27.264C129.616 27.3067 129.637 27.3493 129.68 27.392C129.722 27.4347 129.765 27.456 129.808 27.456Z" fill="url(#paint0_linear_1_675)"/>
<defs>
<linearGradient id="paint0_linear_1_675" x1="1.34316e-06" y1="40" x2="38.5783" y2="-47.1235" gradientUnits="userSpaceOnUse">
<stop stop-color="#2600FC"/>
<stop offset="1" stop-color="#FF00EA"/>
</linearGradient>
</defs>
</svg>
