<svg width="51" height="51" viewBox="0 0 51 51" fill="none" xmlns="http://www.w3.org/2000/svg">
<g clip-path="url(#clip0_1_243)">
<path d="M27.3633 8.18579H32.0508C32.474 8.18579 32.8727 8.26717 33.2471 8.42993C33.6214 8.59269 33.9551 8.82056 34.248 9.11353C34.541 9.40649 34.7689 9.74015 34.9316 10.1145C35.0944 10.4888 35.1758 10.8876 35.1758 11.3108V19.1233H32.0508V11.3108H27.3633V15.9983H8.61328V11.3108H3.92578V44.1233H17.9883V47.2483H3.92578C3.5026 47.2483 3.10384 47.1669 2.72949 47.0042C2.35514 46.8414 2.02148 46.6135 1.72852 46.3206C1.43555 46.0276 1.20768 45.6939 1.04492 45.3196C0.882161 44.9452 0.800781 44.5465 0.800781 44.1233V11.3108C0.800781 10.8876 0.882161 10.4888 1.04492 10.1145C1.20768 9.74015 1.43555 9.40649 1.72852 9.11353C2.02148 8.82056 2.35514 8.59269 2.72949 8.42993C3.10384 8.26717 3.5026 8.18579 3.92578 8.18579H8.61328V6.62329C8.61328 6.20012 8.69466 5.80135 8.85742 5.427C9.02018 5.05265 9.24805 4.71899 9.54102 4.42603C9.83398 4.13306 10.1676 3.90519 10.542 3.74243C10.9163 3.57967 11.3151 3.49829 11.7383 3.49829H24.2383C24.6615 3.49829 25.0602 3.57967 25.4346 3.74243C25.8089 3.90519 26.1426 4.13306 26.4355 4.42603C26.7285 4.71899 26.9564 5.05265 27.1191 5.427C27.2819 5.80135 27.3633 6.20012 27.3633 6.62329V8.18579ZM11.7383 12.8733H24.2383V6.62329H11.7383V12.8733ZM38.7402 27.1311C39.0983 27.8147 39.375 28.539 39.5703 29.304C39.7656 30.0689 39.8633 30.842 39.8633 31.6233C39.8633 32.2743 39.7982 32.9254 39.668 33.5764C39.5378 34.2275 39.3262 34.8459 39.0332 35.4319C38.7728 36.0504 38.4473 36.62 38.0566 37.1409C37.666 37.6617 37.2266 38.15 36.7383 38.6057V50.3733L30.4883 47.3948L24.2383 50.3733V38.6057C23.6523 38.0849 23.1396 37.4989 22.7002 36.8479C22.2607 36.1969 21.9108 35.497 21.6504 34.7483C21.39 34.0321 21.2272 33.2834 21.1621 32.5022C21.097 31.7209 21.1133 30.9397 21.2109 30.1584C21.3411 29.3772 21.5609 28.6285 21.8701 27.9124C22.1794 27.1962 22.5781 26.5289 23.0664 25.9104C23.5221 25.2919 24.0592 24.7385 24.6777 24.2502C25.2962 23.762 25.9635 23.3551 26.6797 23.0295C27.3958 22.704 28.1364 22.4762 28.9014 22.3459C29.6663 22.2157 30.4395 22.1832 31.2207 22.2483C32.002 22.3134 32.7669 22.4762 33.5156 22.7366C34.2643 22.997 34.9642 23.3388 35.6152 23.762C36.2663 24.1851 36.8522 24.6816 37.373 25.2512C37.8939 25.8209 38.3496 26.4475 38.7402 27.1311ZM30.4883 43.9768L33.6133 45.4417V40.4612C32.6042 40.8193 31.5625 40.9983 30.4883 40.9983C29.4141 40.9983 28.3724 40.8193 27.3633 40.4612V45.4417L30.4883 43.9768ZM27.0215 36.7991C27.5423 37.1571 28.0957 37.4257 28.6816 37.6047C29.2676 37.7838 29.8698 37.8733 30.4883 37.8733C31.3021 37.8733 32.0915 37.7105 32.8564 37.385C33.6214 37.0595 34.2969 36.6038 34.8828 36.0178C35.4688 35.4319 35.9245 34.7564 36.25 33.9915C36.5755 33.2265 36.7383 32.4371 36.7383 31.6233C36.7383 31.0048 36.6488 30.4026 36.4697 29.8167C36.2907 29.2307 36.0221 28.6773 35.6641 28.1565C35.3385 27.6357 34.9398 27.1799 34.4678 26.7893C33.9958 26.3987 33.4668 26.0894 32.8809 25.8616C32.2949 25.6012 31.7008 25.4465 31.0986 25.3977C30.4964 25.3489 29.8861 25.3733 29.2676 25.4709C28.6491 25.6012 28.0713 25.8127 27.5342 26.1057C26.9971 26.3987 26.5007 26.773 26.0449 27.2288C25.6217 27.6519 25.2637 28.1321 24.9707 28.6692C24.6777 29.2063 24.4661 29.7841 24.3359 30.4026C24.2383 31.0211 24.2139 31.6314 24.2627 32.2336C24.3115 32.8359 24.4661 33.4299 24.7266 34.0159C24.9544 34.6018 25.2637 35.1308 25.6543 35.6028C26.0449 36.0748 26.5007 36.4736 27.0215 36.7991Z" fill="url(#paint0_linear_1_243)"/>
</g>
<defs>
<linearGradient id="paint0_linear_1_243" x1="0.800782" y1="3.49829" x2="50.7392" y2="29.4244" gradientUnits="userSpaceOnUse">
<stop stop-color="#2600FC"/>
<stop offset="1" stop-color="#FF00EA"/>
</linearGradient>
<clipPath id="clip0_1_243">
<rect width="50" height="50" fill="white" transform="matrix(1 0 0 -1 0.800781 50.3733)"/>
</clipPath>
</defs>
</svg>
