<svg width="51" height="51" viewBox="0 0 51 51" fill="none" xmlns="http://www.w3.org/2000/svg">
<g clip-path="url(#clip0_1_252)">
<path d="M13.1426 14.9241C12.6217 15.2821 12.0684 15.5507 11.4824 15.7297C10.8965 15.9088 10.2943 15.9983 9.67578 15.9983C8.86198 15.9983 8.06445 15.8437 7.2832 15.5344C6.50195 15.2252 5.81836 14.7776 5.23242 14.1917C4.64648 13.6057 4.19889 12.9221 3.88965 12.1409C3.5804 11.3596 3.42578 10.5621 3.42578 9.74829C3.42578 9.1298 3.5153 8.52759 3.69434 7.94165C3.87337 7.35571 4.14193 6.80233 4.5 6.28149C4.82552 5.76066 5.22428 5.30493 5.69629 4.91431C6.16829 4.52368 6.69727 4.21444 7.2832 3.98657C7.86914 3.72615 8.46322 3.57153 9.06543 3.52271C9.66764 3.47388 10.278 3.49829 10.8965 3.59595C11.515 3.72615 12.0928 3.93774 12.6299 4.23071C13.167 4.52368 13.6634 4.88176 14.1191 5.30493C14.5423 5.76066 14.9004 6.25708 15.1934 6.79419C15.4863 7.3313 15.6979 7.9091 15.8281 8.52759C15.9258 9.14608 15.9502 9.75643 15.9014 10.3586C15.8525 10.9609 15.6979 11.5549 15.4375 12.1409C15.2096 12.7268 14.9004 13.2558 14.5098 13.7278C14.1191 14.1998 13.6634 14.5986 13.1426 14.9241ZM11.4336 7.1604C11.1732 6.99764 10.8883 6.86743 10.5791 6.76978C10.2699 6.67212 9.96875 6.62329 9.67578 6.62329C9.2526 6.62329 8.85384 6.70467 8.47949 6.86743C8.10514 7.03019 7.77148 7.25806 7.47852 7.55103C7.18555 7.84399 6.95768 8.17765 6.79492 8.552C6.63216 8.92635 6.55078 9.32512 6.55078 9.74829C6.55078 10.0413 6.59961 10.3424 6.69727 10.6516C6.79492 10.9609 6.92513 11.2457 7.08789 11.5061C7.25065 11.734 7.4541 11.9456 7.69824 12.1409C7.94238 12.3362 8.21094 12.4989 8.50391 12.6292C8.76432 12.7594 9.04915 12.8407 9.3584 12.8733C9.66764 12.9058 9.96875 12.8896 10.2617 12.8245C10.5872 12.7594 10.8883 12.6536 11.165 12.5071C11.4417 12.3606 11.6777 12.1734 11.873 11.9456C12.1009 11.7502 12.2881 11.5142 12.4346 11.2375C12.5811 10.9609 12.6868 10.6597 12.752 10.3342C12.8171 10.0413 12.8333 9.74015 12.8008 9.43091C12.7682 9.12166 12.6868 8.83683 12.5566 8.57642C12.4264 8.28345 12.2637 8.01489 12.0684 7.77075C11.873 7.52661 11.6615 7.32316 11.4336 7.1604ZM34.6758 19.1233V17.5608C34.6758 17.04 34.627 16.5273 34.5293 16.0227C34.4316 15.5181 34.2852 15.038 34.0898 14.5823C33.8945 14.094 33.6504 13.6383 33.3574 13.2151C33.0645 12.7919 32.7389 12.4013 32.3809 12.0432C32.0228 11.6851 31.6322 11.3596 31.209 11.0667C30.7858 10.7737 30.3301 10.5295 29.8418 10.3342C29.3861 10.1389 28.9059 9.99243 28.4014 9.89478C27.8968 9.79712 27.3841 9.74829 26.8633 9.74829H22.1758V6.62329H26.8633C28.3281 6.62329 29.7279 6.89998 31.0625 7.45337C32.3971 8.00676 33.569 8.80428 34.5781 9.84595C35.6198 10.8551 36.4173 12.0269 36.9707 13.3616C37.5241 14.6962 37.8008 16.0959 37.8008 17.5608V19.1233H34.6758ZM6.55078 31.6233V33.1858C6.55078 34.2275 6.74609 35.2284 7.13672 36.1887C7.52734 37.149 8.09701 37.9872 8.8457 38.7034C9.56185 39.4521 10.4001 40.0217 11.3604 40.4124C12.3206 40.803 13.3216 40.9983 14.3633 40.9983H19.0508V44.1233H14.3633C12.8984 44.1233 11.4987 43.8466 10.1641 43.2932C8.82943 42.7398 7.65755 41.9423 6.64844 40.9006C5.60677 39.8915 4.80924 38.7196 4.25586 37.385C3.70247 36.0504 3.42578 34.6506 3.42578 33.1858V31.6233H6.55078ZM14.3633 17.5608H4.98828C4.36979 17.5608 3.77572 17.6829 3.20605 17.927C2.63639 18.1711 2.1237 18.5048 1.66797 18.928C1.24479 19.3837 0.911133 19.8964 0.666992 20.4661C0.422852 21.0357 0.300781 21.6298 0.300781 22.2483V25.3733H3.42578V22.2483C3.42578 22.053 3.46647 21.8577 3.54785 21.6624C3.62923 21.467 3.73503 21.288 3.86523 21.1252C4.02799 20.995 4.20703 20.8892 4.40234 20.8079C4.59766 20.7265 4.79297 20.6858 4.98828 20.6858H14.3633C14.5586 20.6858 14.7539 20.7265 14.9492 20.8079C15.1445 20.8892 15.3236 20.995 15.4863 21.1252C15.6165 21.288 15.7223 21.467 15.8037 21.6624C15.8851 21.8577 15.9258 22.053 15.9258 22.2483V25.3733H19.0508V22.2483C19.0508 21.6298 18.9287 21.0357 18.6846 20.4661C18.4404 19.8964 18.1068 19.3837 17.6836 18.928C17.2279 18.5048 16.7152 18.1711 16.1455 17.927C15.5758 17.6829 14.9818 17.5608 14.3633 17.5608ZM29.9883 39.4358C29.3698 39.4358 28.7757 39.5579 28.2061 39.802C27.6364 40.0461 27.1237 40.3798 26.668 40.803C26.2448 41.2587 25.9111 41.7714 25.667 42.3411C25.4229 42.9107 25.3008 43.5048 25.3008 44.1233V47.2483H28.4258V44.1233C28.4258 43.928 28.4665 43.7327 28.5479 43.5374C28.6292 43.342 28.735 43.163 28.8652 43.0002C29.028 42.87 29.207 42.7642 29.4023 42.6829C29.5977 42.6015 29.793 42.5608 29.9883 42.5608H39.3633C39.5586 42.5608 39.7539 42.6015 39.9492 42.6829C40.1445 42.7642 40.3236 42.87 40.4863 43.0002C40.6165 43.163 40.7223 43.342 40.8037 43.5374C40.8851 43.7327 40.9258 43.928 40.9258 44.1233V47.2483H44.0508V44.1233C44.0508 43.5048 43.9287 42.9107 43.6846 42.3411C43.4404 41.7714 43.1068 41.2587 42.6836 40.803C42.2279 40.3798 41.7152 40.0461 41.1455 39.802C40.5758 39.5579 39.9818 39.4358 39.3633 39.4358H29.9883ZM29.5 35.0901C29.1419 34.5693 28.8734 34.0159 28.6943 33.4299C28.5153 32.844 28.4258 32.2418 28.4258 31.6233C28.4258 30.8095 28.5804 30.012 28.8896 29.2307C29.1989 28.4495 29.6465 27.7659 30.2324 27.1799C30.8184 26.594 31.502 26.1464 32.2832 25.8372C33.0645 25.5279 33.862 25.3733 34.6758 25.3733C35.2943 25.3733 35.8965 25.4628 36.4824 25.6418C37.0684 25.8209 37.6217 26.0894 38.1426 26.4475C38.6634 26.773 39.1191 27.1718 39.5098 27.6438C39.9004 28.1158 40.2096 28.6448 40.4375 29.2307C40.6979 29.8167 40.8525 30.4107 40.9014 31.0129C40.9502 31.6152 40.9258 32.2255 40.8281 32.844C40.6979 33.4625 40.4863 34.0403 40.1934 34.5774C39.9004 35.1145 39.5423 35.6109 39.1191 36.0667C38.6634 36.4898 38.167 36.8479 37.6299 37.1409C37.0928 37.4338 36.515 37.6454 35.8965 37.7756C35.278 37.8733 34.6676 37.8977 34.0654 37.8489C33.4632 37.8 32.8691 37.6454 32.2832 37.385C31.6973 37.1571 31.1683 36.8479 30.6963 36.4573C30.2243 36.0667 29.8255 35.6109 29.5 35.0901ZM37.2637 33.3811C37.4264 33.1207 37.5566 32.8359 37.6543 32.5266C37.752 32.2174 37.8008 31.9163 37.8008 31.6233C37.8008 31.2001 37.7194 30.8014 37.5566 30.427C37.3939 30.0527 37.166 29.719 36.873 29.426C36.5801 29.1331 36.2464 28.9052 35.8721 28.7424C35.4977 28.5797 35.099 28.4983 34.6758 28.4983C34.3828 28.4983 34.0817 28.5471 33.7725 28.6448C33.4632 28.7424 33.1784 28.8726 32.918 29.0354C32.6901 29.1982 32.4785 29.4016 32.2832 29.6458C32.0879 29.8899 31.9251 30.1584 31.7949 30.4514C31.6647 30.7118 31.5833 30.9967 31.5508 31.3059C31.5182 31.6152 31.5345 31.9163 31.5996 32.2092C31.6647 32.5347 31.7705 32.8359 31.917 33.1125C32.0635 33.3892 32.2507 33.6252 32.4785 33.8206C32.6738 34.0484 32.9098 34.2356 33.1865 34.3821C33.4632 34.5286 33.7643 34.6344 34.0898 34.6995C34.3828 34.7646 34.6839 34.7808 34.9932 34.7483C35.3024 34.7157 35.5872 34.6344 35.8477 34.5042C36.1406 34.3739 36.4092 34.2112 36.6533 34.0159C36.8975 33.8206 37.1009 33.609 37.2637 33.3811Z" fill="url(#paint0_linear_1_252)"/>
</g>
<defs>
<linearGradient id="paint0_linear_1_252" x1="0.300782" y1="3.49829" x2="51.4534" y2="35.366" gradientUnits="userSpaceOnUse">
<stop stop-color="#2600FC"/>
<stop offset="1" stop-color="#FF00EA"/>
</linearGradient>
<clipPath id="clip0_1_252">
<rect width="50" height="50" fill="white" transform="matrix(1 0 0 -1 0.300781 50.3733)"/>
</clipPath>
</defs>
</svg>
