<svg width="51" height="51" viewBox="0 0 51 51" fill="none" xmlns="http://www.w3.org/2000/svg">
<g clip-path="url(#clip0_1_234)">
<rect width="50" height="50" transform="matrix(1 0 0 -1 0.300781 50.3733)" fill="white"/>
<path d="M10.0013 7.20914C11.7917 6.00472 13.7285 5.08512 15.8118 4.45036C17.8952 3.81559 20.0111 3.49821 22.1595 3.49821C23.6243 3.49821 25.0566 3.64469 26.4564 3.93766C27.8561 4.19808 29.2152 4.60498 30.5335 5.15836C31.8519 5.71175 33.1133 6.37907 34.3177 7.16032C35.4896 7.97412 36.5964 8.88558 37.638 9.89469C38.6471 10.9364 39.5586 12.0431 40.3724 13.215C41.1536 14.4194 41.821 15.6808 42.3744 16.9992C42.9277 18.3175 43.3346 19.6766 43.5951 21.0763C43.888 22.4761 44.0345 23.9084 44.0345 25.3732C44.0345 27.5216 43.7171 29.6375 43.0824 31.7209C42.4476 33.8042 41.528 35.741 40.3236 37.5314C39.1517 39.3218 37.7275 40.9006 36.0511 42.2677C34.3747 43.6349 32.5273 44.7417 30.5091 45.5881C28.5234 46.4019 26.4564 46.9146 24.3079 47.1261C22.1595 47.3377 20.0273 47.2319 17.9115 46.8088C15.763 46.3856 13.7367 45.6694 11.8324 44.6603C9.92806 43.6512 8.21094 42.3817 6.68099 40.8517C5.15104 39.3218 3.88151 37.6047 2.8724 35.7004C1.86328 33.7961 1.14714 31.7697 0.723958 29.6213C0.300781 27.5054 0.194987 25.3732 0.406576 23.2248C0.618164 21.0763 1.13086 19.0093 1.94466 17.0236C2.79102 15.0054 3.89779 13.158 5.26497 11.4816C6.63216 9.80518 8.21094 8.38102 10.0013 7.20914ZM11.7591 40.9494C13.2891 41.991 14.9411 42.7804 16.7152 43.3175C18.4893 43.8547 20.304 44.1232 22.1595 44.1232C24.6335 44.1232 27.026 43.6512 29.3372 42.7072C31.6484 41.7632 33.6829 40.4123 35.4408 38.6545C37.1986 36.8966 38.5495 34.8621 39.4935 32.5509C40.4375 30.2397 40.9095 27.8472 40.9095 25.3732C40.9095 23.5177 40.641 21.703 40.1038 19.9289C39.5667 18.1548 38.7773 16.5028 37.7357 14.9728C36.7266 13.4103 35.5059 12.0431 34.0736 10.8713C32.6413 9.69938 31.0625 8.75537 29.3372 8.03922C27.612 7.32308 25.8298 6.87549 23.9906 6.69645C22.1514 6.51741 20.3203 6.60693 18.4974 6.965C16.6745 7.32308 14.9492 7.94157 13.3216 8.82047C11.694 9.69938 10.2129 10.7899 8.87826 12.092C7.57617 13.4266 6.48568 14.9077 5.60677 16.5353C4.72786 18.1629 4.10938 19.8882 3.7513 21.7111C3.39323 23.534 3.30371 25.3651 3.48275 27.2043C3.66178 29.0435 4.10937 30.8257 4.82552 32.5509C5.54167 34.2762 6.48568 35.855 7.65755 37.2873C8.82943 38.7196 10.1966 39.9403 11.7591 40.9494ZM11.222 26.008L19.0345 33.8205L33.097 19.758L30.8997 17.5607L19.0345 29.4259L13.4193 23.8107L11.222 26.008Z" fill="url(#paint0_linear_1_234)"/>
</g>
<defs>
<linearGradient id="paint0_linear_1_234" x1="0.300782" y1="3.49821" x2="51.4343" y2="35.3541" gradientUnits="userSpaceOnUse">
<stop stop-color="#2600FC"/>
<stop offset="1" stop-color="#FF00EA"/>
</linearGradient>
<clipPath id="clip0_1_234">
<rect width="50" height="50" fill="white" transform="matrix(1 0 0 -1 0.300781 50.3733)"/>
</clipPath>
</defs>
</svg>
