<svg width="51" height="51" viewBox="0 0 51 51" fill="none" xmlns="http://www.w3.org/2000/svg">
<g clip-path="url(#clip0_1_225)">
<path d="M3.92578 44.1233H10.1758V40.9983H3.92578V9.74829H15.791L22.041 15.9983H41.4258V28.4983H44.5508V15.9983C44.5508 15.5751 44.4694 15.1763 44.3066 14.802C44.1439 14.4277 43.916 14.094 43.623 13.801C43.3301 13.5081 42.9964 13.2802 42.6221 13.1174C42.2477 12.9547 41.849 12.8733 41.4258 12.8733H23.3105L17.9883 7.55103C17.8581 7.38826 17.7035 7.24992 17.5244 7.13599C17.3454 7.02205 17.1582 6.93254 16.9629 6.86743C16.7676 6.76978 16.5723 6.70467 16.377 6.67212C16.1816 6.63957 15.9863 6.62329 15.791 6.62329H3.92578C3.5026 6.62329 3.10384 6.70467 2.72949 6.86743C2.35514 7.03019 2.02148 7.25806 1.72852 7.55103C1.43555 7.84399 1.20768 8.17765 1.04492 8.552C0.882161 8.92635 0.800781 9.32512 0.800781 9.74829V40.9983C0.800781 41.4215 0.882161 41.8202 1.04492 42.1946C1.20768 42.5689 1.43555 42.9026 1.72852 43.1956C2.02148 43.4885 2.35514 43.7164 2.72949 43.8792C3.10384 44.0419 3.5026 44.1233 3.92578 44.1233ZM24.2383 33.1858H13.3008V22.2483H24.2383V33.1858ZM16.4258 30.0608H21.1133V25.3733H16.4258V30.0608ZM24.2383 47.2483H13.3008V36.3108H24.2383V47.2483ZM16.4258 44.1233H21.1133V39.4358H16.4258V44.1233ZM27.3633 33.1858H38.3008V22.2483H27.3633V33.1858ZM35.1758 30.0608H30.4883V25.3733H35.1758V30.0608ZM38.3008 47.2483H27.3633V36.3108H38.3008V47.2483ZM30.4883 44.1233H35.1758V39.4358H30.4883V44.1233Z" fill="url(#paint0_linear_1_225)"/>
</g>
<defs>
<linearGradient id="paint0_linear_1_225" x1="0.800782" y1="6.62329" x2="49.7661" y2="39.4749" gradientUnits="userSpaceOnUse">
<stop stop-color="#2600FC"/>
<stop offset="1" stop-color="#FF00EA"/>
</linearGradient>
<clipPath id="clip0_1_225">
<rect width="50" height="50" fill="white" transform="matrix(1 0 0 -1 0.800781 50.3733)"/>
</clipPath>
</defs>
</svg>
